<?xml version="1.0" encoding="UTF-8"?>
<svg xmlns="http://www.w3.org/2000/svg" width="409" height="115" viewBox="0 0 409 115" fill="none">
  <path d="M0.907166 94.4288L0.907166 63.6001L20.2852 44.2221V113.807L0.907166 94.4288Z" fill="#52C6D8"></path>
  <path d="M20.3715 43.9632H51.2002L70.5782 63.3412H0.993439L20.3715 43.9632Z" fill="#A1DBE4"></path>
  <path d="M70.6645 94.4288V63.6001L51.2865 44.2221V113.807L70.6645 94.4288Z" fill="#52C6D8"></path>
  <path d="M51.2002 73.5875V19.4271L70.5783 0V73.5875H51.2002Z" fill="#52C6D8"></path>
  <path d="M20.2852 114.161H51.1139L70.4919 94.7829H0.907135L20.2852 114.161Z" fill="#1386A7"></path>
  <path d="M91.9857 73.5875V19.4271L72.6077 0V73.5875H91.9857Z" fill="#52C6D8"></path>
  <path d="M72.6077 40.5177V94.6781L91.9857 114.105V40.5177H72.6077Z" fill="#52C6D8"></path>
  <path d="M113.912 94.2016H110.67V65.6371H100V62.7984H124.582V65.6371H113.912V94.2016Z" fill="#1386A7"></path>
  <path d="M132.609 91.3629H149.672V94.2016H129.368V62.7984H149.132V65.6371H132.609V76.4597H148.052V79.254H132.609V91.3629Z" fill="#1386A7"></path>
  <path d="M182.844 89.1452C182.304 89.9435 181.643 90.6976 180.863 91.4073C180.113 92.1169 179.227 92.7379 178.207 93.2702C177.216 93.8024 176.106 94.2164 174.875 94.5121C173.675 94.8374 172.354 95 170.913 95C168.512 95 166.291 94.586 164.25 93.7581C162.209 92.9301 160.453 91.7917 158.983 90.3427C157.512 88.8642 156.356 87.1196 155.516 85.1089C154.706 83.0981 154.3 80.8952 154.3 78.5C154.3 76.1048 154.721 73.9019 155.561 71.8911C156.401 69.8804 157.557 68.1505 159.028 66.7016C160.528 65.2231 162.284 64.0699 164.295 63.2419C166.336 62.414 168.542 62 170.913 62C172.084 62 173.224 62.1183 174.335 62.3548C175.475 62.5914 176.541 62.9315 177.531 63.375C178.522 63.789 179.422 64.3065 180.233 64.9274C181.043 65.5188 181.718 66.1989 182.259 66.9677L179.557 68.9194C179.227 68.4167 178.777 67.914 178.207 67.4113C177.666 66.9086 177.021 66.4651 176.271 66.0806C175.52 65.6962 174.695 65.3858 173.795 65.1492C172.924 64.9126 171.979 64.7944 170.958 64.7944C168.887 64.7944 167.026 65.164 165.376 65.9032C163.755 66.6425 162.374 67.6478 161.234 68.9194C160.093 70.1613 159.223 71.6102 158.622 73.2661C158.022 74.922 157.722 76.6667 157.722 78.5C157.722 80.3333 158.022 82.078 158.622 83.7339C159.253 85.3898 160.138 86.8535 161.279 88.125C162.419 89.3669 163.8 90.3575 165.421 91.0968C167.071 91.836 168.917 92.2056 170.958 92.2056C172.789 92.2056 174.53 91.836 176.181 91.0968C177.832 90.3575 179.212 89.1747 180.323 87.5484L182.844 89.1452Z" fill="#1386A7"></path>
  <path d="M188.414 62.7984H191.656V76.4153H209.034V62.7984H212.275V94.2016H209.034V79.3427H191.656V94.2016H188.414V62.7984Z" fill="#1386A7"></path>
  <path d="M243.33 89.5444H243.42V62.7984H246.661V94.2016H242.609L224.061 67.1895H223.971V94.2016H220.729V62.7984H224.781L243.33 89.5444Z" fill="#1386A7"></path>
  <path d="M286.625 78.5C286.625 80.8952 286.205 83.0981 285.365 85.1089C284.524 87.1196 283.354 88.8642 281.853 90.3427C280.382 91.7917 278.627 92.9301 276.586 93.7581C274.575 94.586 272.384 95 270.013 95C267.641 95 265.435 94.586 263.394 93.7581C261.384 92.9301 259.628 91.7917 258.127 90.3427C256.656 88.8642 255.501 87.1196 254.66 85.1089C253.82 83.0981 253.4 80.8952 253.4 78.5C253.4 76.1048 253.82 73.9019 254.66 71.8911C255.501 69.8804 256.656 68.1505 258.127 66.7016C259.628 65.2231 261.384 64.0699 263.394 63.2419C265.435 62.414 267.641 62 270.013 62C272.384 62 274.575 62.414 276.586 63.2419C278.627 64.0699 280.382 65.2231 281.853 66.7016C283.354 68.1505 284.524 69.8804 285.365 71.8911C286.205 73.9019 286.625 76.1048 286.625 78.5ZM283.204 78.5C283.204 76.6667 282.904 74.922 282.303 73.2661C281.703 71.6102 280.833 70.1613 279.692 68.9194C278.552 67.6478 277.156 66.6425 275.505 65.9032C273.884 65.164 272.054 64.7944 270.013 64.7944C267.972 64.7944 266.126 65.164 264.475 65.9032C262.854 66.6425 261.474 67.6478 260.333 68.9194C259.193 70.1613 258.322 71.6102 257.722 73.2661C257.122 74.922 256.821 76.6667 256.821 78.5C256.821 80.3333 257.122 82.078 257.722 83.7339C258.322 85.3898 259.193 86.8387 260.333 88.0806C261.474 89.3226 262.854 90.3132 264.475 91.0524C266.126 91.7917 267.972 92.1613 270.013 92.1613C272.054 92.1613 273.884 91.7917 275.505 91.0524C277.156 90.3132 278.552 89.3226 279.692 88.0806C280.833 86.8387 281.703 85.3898 282.303 83.7339C282.904 82.078 283.204 80.3333 283.204 78.5Z" fill="#1386A7"></path>
  <path d="M296.603 91.3629H311.46V94.2016H293.361V62.7984H296.603V91.3629Z" fill="#1386A7"></path>
  <path d="M346.463 78.5C346.463 80.8952 346.043 83.0981 345.203 85.1089C344.362 87.1196 343.192 88.8642 341.691 90.3427C340.22 91.7917 338.464 92.9301 336.423 93.7581C334.412 94.586 332.221 95 329.85 95C327.479 95 325.273 94.586 323.232 93.7581C321.221 92.9301 319.465 91.7917 317.965 90.3427C316.494 88.8642 315.339 87.1196 314.498 85.1089C313.658 83.0981 313.238 80.8952 313.238 78.5C313.238 76.1048 313.658 73.9019 314.498 71.8911C315.339 69.8804 316.494 68.1505 317.965 66.7016C319.465 65.2231 321.221 64.0699 323.232 63.2419C325.273 62.414 327.479 62 329.85 62C332.221 62 334.412 62.414 336.423 63.2419C338.464 64.0699 340.22 65.2231 341.691 66.7016C343.192 68.1505 344.362 69.8804 345.203 71.8911C346.043 73.9019 346.463 76.1048 346.463 78.5ZM343.042 78.5C343.042 76.6667 342.741 74.922 342.141 73.2661C341.541 71.6102 340.67 70.1613 339.53 68.9194C338.389 67.6478 336.994 66.6425 335.343 65.9032C333.722 65.164 331.891 64.7944 329.85 64.7944C327.809 64.7944 325.963 65.164 324.313 65.9032C322.692 66.6425 321.311 67.6478 320.171 68.9194C319.03 70.1613 318.16 71.6102 317.56 73.2661C316.959 74.922 316.659 76.6667 316.659 78.5C316.659 80.3333 316.959 82.078 317.56 83.7339C318.16 85.3898 319.03 86.8387 320.171 88.0806C321.311 89.3226 322.692 90.3132 324.313 91.0524C325.963 91.7917 327.809 92.1613 329.85 92.1613C331.891 92.1613 333.722 91.7917 335.343 91.0524C336.994 90.3132 338.389 89.3226 339.53 88.0806C340.67 86.8387 341.541 85.3898 342.141 83.7339C342.741 82.078 343.042 80.3333 343.042 78.5Z" fill="#1386A7"></path>
  <path d="M377.375 68.4315C376.265 67.2782 374.944 66.3911 373.413 65.7702C371.882 65.1196 370.127 64.7944 368.146 64.7944C366.105 64.7944 364.259 65.164 362.608 65.9032C360.987 66.6425 359.607 67.6478 358.466 68.9194C357.326 70.1613 356.44 71.6102 355.81 73.2661C355.21 74.922 354.91 76.6667 354.91 78.5C354.91 80.3333 355.21 82.078 355.81 83.7339C356.44 85.3898 357.326 86.8387 358.466 88.0806C359.607 89.3226 360.987 90.3132 362.608 91.0524C364.259 91.7917 366.105 92.1613 368.146 92.1613C369.947 92.1613 371.597 91.9691 373.098 91.5847C374.599 91.2003 375.814 90.7124 376.745 90.121V80.5847H369.316V77.7903H379.986V91.9395C378.246 92.9745 376.37 93.7433 374.359 94.246C372.348 94.7487 370.262 95 368.101 95C365.7 95 363.479 94.586 361.438 93.7581C359.397 92.9301 357.641 91.7917 356.17 90.3427C354.699 88.8642 353.544 87.1196 352.703 85.1089C351.893 83.0981 351.488 80.8952 351.488 78.5C351.488 76.1048 351.908 73.9019 352.749 71.8911C353.589 69.8804 354.744 68.1505 356.215 66.7016C357.716 65.2231 359.472 64.0699 361.483 63.2419C363.524 62.414 365.73 62 368.101 62C370.652 62 372.873 62.3696 374.764 63.1089C376.655 63.8481 378.275 64.8831 379.626 66.2137L377.375 68.4315Z" fill="#1386A7"></path>
  <path d="M397.069 94.2016H393.828V80.6734L381.897 62.7984H385.949L395.539 78.0121L405.218 62.7984H409L397.069 80.6734V94.2016Z" fill="#1386A7"></path>
</svg>
